<?xml version="1.0" encoding="UTF-8"?>
<svg xmlns="http://www.w3.org/2000/svg" xmlns:xlink="http://www.w3.org/1999/xlink" width="577pt" height="576.5pt" viewBox="0 0 577 576.5" version="1.1">
<g id="surface0">
<path style="fill-rule: nonzero; fill: rgb(13.730068%,12.159915%,12.54902%); fill-opacity: 1;stroke-width: 1; stroke-linecap: butt; stroke-linejoin: miter; stroke: rgb(13.730068%,12.159915%,12.54902%); stroke-opacity: 1;stroke-miterlimit: 4; " d="M 576.5 -42 C 576.5 -42 0.5 -42 0.5 -42 C 0.5 -42 0.5 -576 0.5 -576 C 0.5 -576 576.5 -576 576.5 -576 C 576.5 -576 576.5 -42 576.5 -42 Z M 576.5 -42 " transform="matrix(1,0,0,1,0,576.5)"/>
<path style=" stroke:none;fill-rule: nonzero; fill: rgb(100%,100%,100%); fill-opacity: 1;" d="M 45 246.5 C 45 246.5 45 38 45 38 C 45 38 146.5 38 146.5 38 C 146.5 38 146.5 73 146.5 73 C 146.5 73 75 73 75 73 C 75 73 75 123 75 123 C 75 123 137 123 137 123 C 137 123 137 158 137 158 C 137 158 75 158 75 158 C 75 158 75 246.5 75 246.5 C 75 246.5 45 246.5 45 246.5 Z M 45 246.5 "/>
<path style=" stroke:none;fill-rule: nonzero; fill: rgb(100%,100%,100%); fill-opacity: 1;" d="M 195.058594 126 C 195.058594 126 216.324219 126 216.324219 126 C 229.308594 126 237.574219 125.3125 241.121094 123.9375 C 244.667969 122.5625 247.542969 119.78125 249.746094 115.601562 C 251.949219 111.421875 253.058594 105.867188 253.058594 98.929688 C 253.058594 92.28125 251.949219 86.9375 249.746094 82.898438 C 247.542969 78.867188 244.550781 76.085938 240.777344 74.570312 C 238.089844 73.523438 230.332031 73 217.503906 73 C 217.503906 73 195.058594 73 195.058594 73 C 195.058594 73 195.058594 126 195.058594 126 Z M 166.558594 246.5 C 166.558594 246.5 166.558594 38 166.558594 38 C 166.558594 38 226.863281 38 226.863281 38 C 242.277344 38 253.292969 39.875 259.902344 43.617188 C 266.511719 47.367188 271.933594 53.859375 276.183594 63.109375 C 280.433594 72.359375 282.558594 83.429688 282.558594 96.320312 C 282.558594 112.632812 279.277344 125.765625 272.730469 135.71875 C 266.183594 145.671875 256.871094 151.929688 244.808594 154.492188 C 250.949219 159.8125 256.019531 165.632812 260.035156 171.945312 C 264.050781 178.265625 269.503906 189.570312 276.402344 205.859375 C 276.402344 205.859375 293.558594 246.5 293.558594 246.5 C 293.558594 246.5 259.285156 246.5 259.285156 246.5 C 259.285156 246.5 238.683594 201.164062 238.683594 201.164062 C 231.269531 184.773438 226.238281 174.515625 223.589844 170.390625 C 220.933594 166.265625 218.128906 163.414062 215.167969 161.851562 C 212.207031 160.289062 207.449219 159.5 200.902344 159.5 C 200.902344 159.5 195.058594 159.5 195.058594 159.5 C 195.058594 159.5 195.058594 246.5 195.058594 246.5 C 195.058594 246.5 166.558594 246.5 166.558594 246.5 Z M 166.558594 246.5 "/>
<path style=" stroke:none;fill-rule: nonzero; fill: rgb(100%,100%,100%); fill-opacity: 1;" d="M 311.332031 246.5 C 311.332031 246.5 311.332031 38 311.332031 38 C 311.332031 38 414.332031 38 414.332031 38 C 414.332031 38 414.332031 73 414.332031 73 C 414.332031 73 339.332031 73 339.332031 73 C 339.332031 73 339.332031 119.5 339.332031 119.5 C 339.332031 119.5 409.832031 119.5 409.832031 119.5 C 409.832031 119.5 409.832031 154.5 409.832031 154.5 C 409.832031 154.5 339.332031 154.5 339.332031 154.5 C 339.332031 154.5 339.332031 211.5 339.332031 211.5 C 339.332031 211.5 416.832031 211.5 416.832031 211.5 C 416.832031 211.5 416.832031 246.5 416.832031 246.5 C 416.832031 246.5 311.332031 246.5 311.332031 246.5 Z M 311.332031 246.5 "/>
<path style=" stroke:none;fill-rule: nonzero; fill: rgb(100%,100%,100%); fill-opacity: 1;" d="M 436.699219 246.5 C 436.699219 246.5 436.699219 38 436.699219 38 C 436.699219 38 539.699219 38 539.699219 38 C 539.699219 38 539.699219 73 539.699219 73 C 539.699219 73 464.699219 73 464.699219 73 C 464.699219 73 464.699219 119.5 464.699219 119.5 C 464.699219 119.5 535.199219 119.5 535.199219 119.5 C 535.199219 119.5 535.199219 154.5 535.199219 154.5 C 535.199219 154.5 464.699219 154.5 464.699219 154.5 C 464.699219 154.5 464.699219 211.5 464.699219 211.5 C 464.699219 211.5 542.199219 211.5 542.199219 211.5 C 542.199219 211.5 542.199219 246.5 542.199219 246.5 C 542.199219 246.5 436.699219 246.5 436.699219 246.5 Z M 436.699219 246.5 "/>
<path style=" stroke:none;fill-rule: nonzero; fill: rgb(100%,100%,100%); fill-opacity: 1;" d="M 101 419.5 C 101 419.5 101 384.5 101 384.5 C 101 384.5 155 384.5 155 384.5 C 155 384.5 155 467.671875 155 467.671875 C 149.515625 476.5 141.742188 484.101562 131.679688 490.460938 C 121.617188 496.8125 111.523438 500 101.390625 500 C 89.039062 500 78.140625 495.859375 68.703125 487.5625 C 59.265625 479.273438 51.789062 466.859375 46.273438 450.320312 C 40.757812 433.789062 38 414.335938 38 391.96875 C 38 369.03125 40.773438 349.414062 46.320312 333.117188 C 51.867188 316.820312 59.0625 304.640625 67.914062 296.585938 C 76.765625 288.53125 87.359375 284.5 99.695312 284.5 C 114.507812 284.5 126.375 289.671875 135.296875 300 C 144.21875 310.328125 149.953125 325.5 152.5 345.5 C 152.5 345.5 128 353.5 128 353.5 C 126.132812 342.828125 122.710938 334.664062 117.742188 329 C 112.773438 323.335938 106.835938 320.5 99.9375 320.5 C 89.234375 320.5 80.5625 326.210938 73.9375 337.625 C 67.3125 349.039062 64 366.445312 64 389.835938 C 64 414.9375 67.632812 434.023438 74.914062 447.09375 C 81.132812 458.367188 89.5625 464 100.203125 464 C 105.164062 464 110.320312 462.40625 115.671875 459.210938 C 121.023438 456.015625 125.796875 451.648438 130 446.117188 C 130 446.117188 130 419.5 130 419.5 C 130 419.5 101 419.5 101 419.5 Z M 101 419.5 "/>
<path style=" stroke:none;fill-rule: nonzero; fill: rgb(100%,100%,100%); fill-opacity: 1;" d="M 176.4375 496.5 C 176.4375 496.5 176.4375 288 176.4375 288 C 176.4375 288 279.4375 288 279.4375 288 C 279.4375 288 279.4375 323 279.4375 323 C 279.4375 323 204.4375 323 204.4375 323 C 204.4375 323 204.4375 369.5 204.4375 369.5 C 204.4375 369.5 274.9375 369.5 274.9375 369.5 C 274.9375 369.5 274.9375 404.5 274.9375 404.5 C 274.9375 404.5 204.4375 404.5 204.4375 404.5 C 204.4375 404.5 204.4375 461.5 204.4375 461.5 C 204.4375 461.5 281.9375 461.5 281.9375 461.5 C 281.9375 461.5 281.9375 496.5 281.9375 496.5 C 281.9375 496.5 176.4375 496.5 176.4375 496.5 Z M 176.4375 496.5 "/>
<path style=" stroke:none;fill-rule: nonzero; fill: rgb(100%,100%,100%); fill-opacity: 1;" d="M 301.804688 496.5 C 301.804688 496.5 301.804688 288 301.804688 288 C 301.804688 288 404.804688 288 404.804688 288 C 404.804688 288 404.804688 323 404.804688 323 C 404.804688 323 329.804688 323 329.804688 323 C 329.804688 323 329.804688 369.5 329.804688 369.5 C 329.804688 369.5 400.304688 369.5 400.304688 369.5 C 400.304688 369.5 400.304688 404.5 400.304688 404.5 C 400.304688 404.5 329.804688 404.5 329.804688 404.5 C 329.804688 404.5 329.804688 461.5 329.804688 461.5 C 329.804688 461.5 407.304688 461.5 407.304688 461.5 C 407.304688 461.5 407.304688 496.5 407.304688 496.5 C 407.304688 496.5 301.804688 496.5 301.804688 496.5 Z M 301.804688 496.5 "/>
<path style=" stroke:none;fill-rule: nonzero; fill: rgb(100%,100%,100%); fill-opacity: 1;" d="M 426.171875 496.5 C 426.171875 496.5 426.171875 288 426.171875 288 C 426.171875 288 452.171875 288 452.171875 288 C 452.171875 288 452.171875 380.15625 452.171875 380.15625 C 452.171875 380.15625 505.140625 288 505.140625 288 C 505.140625 288 540.421875 288 540.421875 288 C 540.421875 288 491.4375 368.765625 491.4375 368.765625 C 491.4375 368.765625 542.921875 496.5 542.921875 496.5 C 542.921875 496.5 509.054688 496.5 509.054688 496.5 C 509.054688 496.5 473.304688 398.65625 473.304688 398.65625 C 473.304688 398.65625 452.171875 433.5 452.171875 433.5 C 452.171875 433.5 452.171875 496.5 452.171875 496.5 C 452.171875 496.5 426.171875 496.5 426.171875 496.5 Z M 426.171875 496.5 "/>
</g>
</svg>
